:version 1.10
:name ASF
:units
  mass 1
  length 1
  angle deg
:documentation
  ASF file generated by Kaydara
:root
  axis xyz
  order  tx ty tz rx ry rz
  position 0 0 0
  orientation 0 0 0
:bonedata
  begin
    id 1
    name SpineDummy
    direction 0.999998 -0.00179978 1.38929e-006
    length 3.60008
    axis 0 0 0 xyz
  end
  begin
    id 2
    name Spine
    direction 0.964365 0.262802 0.0305839
    length 8.13928
    axis 1.33928 -1.75354 15.2838 xyz
    dof rx ry rz
  end
  begin
    id 3
    name Spine1
    direction 0.811168 0.572065 0.12144
    length 7.14954
    axis 2.2224 -6.9761 35.2157 xyz
    dof rx ry rz
  end
  begin
    id 4
    name Neck
    direction 0 0 0
    length 0
    axis 2.2224 -6.9761 35.2157 xyz
    dof rx ry rz
  end
  begin
    id 5
    name HeadDummy
    direction 0.810939 0.572387 0.121455
    length 3.55534
    axis 2.2224 -6.9761 35.2157 xyz
  end
  begin
    id 6
    name Head
    direction 0.998226 -0.000232542 0.0595419
    length 7.35666
    axis -3.03688 -3.41352 -0.0133467 xyz
    dof rx ry rz
  end
  begin
    id 7
    name R_ClavicleDummy
    direction 0.531669 -0.194489 -0.824319
    length 2.49392
    axis 2.2224 -6.9761 35.2157 xyz
  end
  begin
    id 8
    name R_Clavicle
    direction -0.155119 0.0480802 -0.986725
    length 4.485
    axis -54.2764 80.6538 162.779 xyz
    dof rx ry rz
  end
  begin
    id 9
    name R_UpperArm
    direction -0.955567 0.200068 -0.216484
    length 10.1122
    axis -72.9943 12.5026 168.175 xyz
    dof rx ry rz
  end
  begin
    id 10
    name R_Forearm
    direction -0.61433 0.385743 0.688332
    length 9.39148
    axis -117.015 -43.4982 147.875 xyz
    dof rx ry rz
  end
  begin
    id 11
    name R_Hand
    direction -0.699429 0.0170333 0.714499
    length 3.66324
    axis -45.0303 -36.7097 175.478 xyz
    dof rx ry rz
  end
  begin
    id 12
    name L_ClavicleDummy
    direction 0.40287 -0.36502 0.839319
    length 2.49392
    axis 2.2224 -6.9761 35.2157 xyz
  end
  begin
    id 13
    name L_Clavicle
    direction -0.231271 -0.0726419 0.970174
    length 4.485
    axis 18.4357 -75.9711 -162.563 xyz
    dof rx ry rz
  end
  begin
    id 14
    name L_UpperArm
    direction -0.917494 0.144359 0.370629
    length 10.1122
    axis 56.0417 -21.7544 171.058 xyz
    dof rx ry rz
  end
  begin
    id 15
    name L_Forearm
    direction -0.496786 0.615074 -0.612281
    length 9.39148
    axis 89.8094 37.7546 128.927 xyz
    dof rx ry rz
  end
  begin
    id 16
    name L_Hand
    direction -0.409932 0.64962 -0.640274
    length 3.66324
    axis -0.424369 32.133 128.52 xyz
    dof rx ry rz
  end
  begin
    id 17
    name L_ThighDummy
    direction -1.84081e-006 1.87549e-006 1
    length 3.13049
    axis 0 0 0 xyz
  end
  begin
    id 18
    name L_Thigh
    direction -0.947739 0.307978 0.083308
    length 17.9961
    axis 173.219 -4.77873 161.998 xyz
    dof rx ry rz
  end
  begin
    id 19
    name L_Calf
    direction -0.728814 -0.684427 0.0197583
    length 13.3367
    axis 167.331 -1.13214 -136.799 xyz
    dof rx ry rz
  end
  begin
    id 20
    name L_Foot
    direction -0.9028 0.418719 0.0981191
    length 5.8674
    axis 163.436 11.5135 -155.37 xyz
    dof rx ry rz
  end
  begin
    id 21
    name L_Toe0
    direction -0.35341 0.886259 0.299411
    length 4.75286
    axis 169.316 -17.4222 111.74 xyz
    dof rx ry rz
  end
  begin
    id 22
    name R_ThighDummy
    direction 9.32778e-007 -8.82053e-007 -1
    length 3.13049
    axis 0 0 0 xyz
  end
  begin
    id 23
    name R_Thigh
    direction -0.925064 0.37528 -0.0585023
    length 17.9961
    axis -178.698 3.35385 157.919 xyz
    dof rx ry rz
  end
  begin
    id 24
    name R_Calf
    direction -0.68969 -0.718776 -0.0876886
    length 13.3367
    axis -160.504 5.03065 -133.817 xyz
    dof rx ry rz
  end
  begin
    id 25
    name R_Foot
    direction -0.857405 0.418858 -0.299022
    length 5.8674
    axis -161.328 4.38911 -154.413 xyz
    dof rx ry rz
  end
  begin
    id 26
    name R_Toe0
    direction -0.100745 0.952789 -0.286433
    length 4.75286
    axis 171.683 16.6445 96.0359 xyz
    dof rx ry rz
  end
:hierarchy
  begin
    root SpineDummy L_ThighDummy R_ThighDummy
    SpineDummy Spine
    Spine Spine1
    Spine1 Neck
    Neck HeadDummy R_ClavicleDummy L_ClavicleDummy
    HeadDummy Head
    R_ClavicleDummy R_Clavicle
    R_Clavicle R_UpperArm
    R_UpperArm R_Forearm
    R_Forearm R_Hand
    L_ClavicleDummy L_Clavicle
    L_Clavicle L_UpperArm
    L_UpperArm L_Forearm
    L_Forearm L_Hand
    L_ThighDummy L_Thigh
    L_Thigh L_Calf
    L_Calf L_Foot
    L_Foot L_Toe0
    R_ThighDummy R_Thigh
    R_Thigh R_Calf
    R_Calf R_Foot
    R_Foot R_Toe0
  end

:SAMPLES-PER-SECOND 30
:FULLY-SPECIFIED
:DEGREES
464
root  -15.6168 8.41783 -8.72429 140.955 45.0713 139.788
Spine  -12.8448 -4.11065 22.8388
Spine1  -14.9651 24.923 -13.016
Neck  3.97569e-016 0 -2.38542e-015
Head  2.65479 -10.1975 19.7961
R_Clavicle  0.566297 4.76323e-005 2.89369
R_UpperArm  52.9852 -62.8463 40.1696
R_Forearm  -14.2014 -3.94895 3.02467
R_Hand  -47.5897 36.4633 -117.503
L_Clavicle  -2.66122 -16.0782 11.0258
L_UpperArm  -66.3234 -42.3506 -7.70998
L_Forearm  11.6182 -4.01021 -4.66863
L_Hand  1.20611 -14.2847 -14.98
L_Thigh  -31.0324 -34.4994 8.55457
L_Calf  -40.8001 7.78287 -95.9997
L_Foot  3.92724 -7.92216 39.3943
L_Toe0  1.51436 -0.213009 4.54914
R_Thigh  31.759 -6.7917 21.0637
R_Calf  5.22127 1.37266 4.27747
R_Foot  4.95866 19.8288 -12.7274
R_Toe0  -1.78853 -0.272788 -17.3235
465
root  -14.3989 9.79884 -10.1774 136.66 36.2384 145.832
Spine  -12.8448 -6.59312 19.2
Spine1  -13.9466 22.7944 -14.827
Neck  3.97569e-016 0 -2.38542e-015
Head  3.59063 -16.4854 21.1852
R_Clavicle  0.465881 -0.102659 2.37409
R_UpperArm  54.6891 -58.3821 41.3664
R_Forearm  -15.8475 -5.56937 4.66848
R_Hand  -48.2724 36.1562 -118.884
L_Clavicle  -3.25142 -17.9266 12.7937
L_UpperArm  -67.9814 -42.877 3.09307
L_Forearm  13.6152 -6.17589 -7.2021
L_Hand  1.00963 -12.9369 -14.9642
L_Thigh  -38.343 -33.0713 18.1341
L_Calf  -8.10632 7.82494 -88.8416
L_Foot  5.70794 -2.27194 30.5419
L_Toe0  9.31958 -1.13386 1.00443
R_Thigh  31.0661 -2.1292 19.9992
R_Calf  -0.634736 -0.871523 -2.696
R_Foot  4.76747 18.2255 -10.9328
R_Toe0  -1.78853 -0.272788 -17.3235
466
root  -13.5325 11.2803 -11.8546 132.183 27.9531 151.808
Spine  -11.5374 -7.84246 16.7227
Spine1  -12.2212 18.8668 -15.9515
Neck  3.97569e-016 0 -2.38542e-015
Head  2.81972 -22.2491 20.4014
R_Clavicle  0.407611 -0.148121 2.07608
R_UpperArm  55.4935 -54.7592 43.7785
R_Forearm  -12.44 -6.45443 5.68075
R_Hand  -47.6706 33.9379 -121.198
L_Clavicle  -3.07886 -17.1968 12.3971
L_UpperArm  -70.4679 -42.9565 17.0675
L_Forearm  18.7477 -8.05115 -9.42298
L_Hand  0.695018 -11.258 -13.1415
L_Thigh  -39.5912 -26.4793 23.3542
L_Calf  19.68 7.67303 -78.6405
L_Foot  1.09455 -6.34424 18.3342
L_Toe0  5.84466 -0.601246 -1.03807
R_Thigh  24.7263 2.299 16.7326
R_Calf  -3.61753 -2.69144 -8.35635
R_Foot  3.73327 12.9522 -9.382
R_Toe0  -1.78853 -0.272788 -17.3235
467
root  -12.9539 12.5889 -13.484 128.738 19.2503 155.424
Spine  -9.69801 -7.37899 13.3667
Spine1  -10.3523 14.5394 -16.8241
Neck  3.97569e-016 0 -2.38542e-015
Head  0.109214 -26.6007 18.2022
R_Clavicle  0.396159 -0.489316 2.01342
R_UpperArm  54.0573 -53.4479 48.4529
R_Forearm  -4.16355 -5.20977 4.68555
R_Hand  -46.8192 31.2036 -124.107
L_Clavicle  -2.73665 -15.1745 11.7132
L_UpperArm  -72.9199 -42.1341 28.3299
L_Forearm  19.7801 -8.18957 -9.58528
L_Hand  0.577616 -10.3363 -13.0304
L_Thigh  -39.8811 -25.6051 24.261
L_Calf  14.1765 7.36865 -70.2707
L_Foot  -0.175181 -10.3443 21.2497
L_Toe0  0.0247616 0.0924296 -6.5918
R_Thigh  21.7602 3.2046 14.5531
R_Calf  -2.08486 -3.93045 -12.2597
R_Foot  3.06284 9.89278 -7.72221
R_Toe0  -1.78853 -0.272788 -17.3235
468
root  -12.6397 13.5829 -15.025 127.028 10.1254 156.88
Spine  -8.04261 -6.38442 8.7505
Spine1  -8.72072 11.1654 -17.1611
Neck  3.97569e-016 0 -2.38542e-015
Head  -3.2607 -29.8581 16.0837
R_Clavicle  0.51872 -2.02033 2.68117
R_UpperArm  52.2959 -51.9334 53.6299
R_Forearm  5.07747 -3.36104 3.1111
R_Hand  -45.7536 28.1608 -127.372
L_Clavicle  -2.47519 -12.4865 11.4344
L_UpperArm  -74.0152 -40.5436 35.0682
L_Forearm  14.9361 -7.31671 -8.54214
L_Hand  0.507407 -9.88215 -12.6537
L_Thigh  -33.0081 -23.7459 21.2183
L_Calf  2.63739 7.13113 -65.6317
L_Foot  1.35696 -7.55667 22.9544
L_Toe0  0.505156 0.034446 -6.1361
R_Thigh  21.7569 1.58465 14.8079
R_Calf  0.371639 -4.17987 -13.0629
R_Foot  2.91202 9.35023 -6.76707
R_Toe0  -1.78853 -0.272788 -17.3235
469
root  -12.7324 14.3319 -16.3915 127.049 2.44912 157.155
Spine  -7.34145 -6.18255 5.20262
Spine1  -8.15179 10.1173 -17.3343
Neck  3.97569e-016 0 -2.38542e-015
Head  -5.56459 -32.1532 14.6042
R_Clavicle  0.700266 -3.881 3.85237
R_UpperArm  51.9788 -48.7785 57.0981
R_Forearm  12.3104 -2.09559 2.02394
R_Hand  -43.92 25.8801 -128.59
L_Clavicle  -2.28973 -10.1473 11.3104
L_UpperArm  -74.7233 -37.0746 39.7824
L_Forearm  9.96303 -7.6488 -8.93415
L_Hand  0.420579 -9.74422 -10.667
L_Thigh  -20.3506 -20.0665 14.1435
L_Calf  -6.19062 7.012 -63.6523
L_Foot  2.9192 -3.10058 20.1911
L_Toe0  0.505156 0.034446 -6.1361
R_Thigh  20.4031 0.991003 15.5179
R_Calf  1.94308 -3.19962 -9.94809
R_Foot  2.44609 7.3489 -6.65618
R_Toe0  -1.78853 -0.272788 -17.3235
470
root  -12.9878 14.8051 -17.5925 128.58 -3.20499 156.625
Spine  -7.83042 -6.56571 3.84627
Spine1  -8.88488 11.2826 -17.5803
Neck  3.97569e-016 0 -2.38542e-015
Head  -6.60878 -33.4521 13.4551
R_Clavicle  0.791557 -5.1642 4.57343
R_UpperArm  52.3319 -45.3428 58.9638
R_Forearm  17.9 -0.808762 0.826691
R_Hand  -41.9926 24.8106 -127.693
L_Clavicle  -2.08342 -8.06444 11.0016
L_UpperArm  -74.9524 -31.1294 43.3331
L_Forearm  9.11381 -10.6011 -12.4935
L_Hand  0.421914 -10.7638 -8.47329
L_Thigh  -6.51425 -15.3231 5.24197
L_Calf  -9.5658 6.81918 -60.7741
L_Foot  3.40873 1.69884 13.3786
L_Toe0  0.674293 0.021671 -6.23969
R_Thigh  16.8423 2.03502 16.483
R_Calf  4.70049 -1.70013 -5.21365
R_Foot  1.83915 4.54331 -7.30622
R_Toe0  -1.78853 -0.272788 -17.3235
471
root  -13.2257 15.0776 -18.9086 130.711 -8.52759 155.75
Spine  -8.86211 -7.06166 3.21036
Spine1  -9.9399 13.0019 -17.3655
Neck  3.97569e-016 0 -2.38542e-015
Head  -7.38289 -33.9319 12.6509
R_Clavicle  0.798552 -5.70812 4.69361
R_UpperArm  53.2304 -42.3219 59.3871
R_Forearm  22.6241 0.540987 -0.369673
R_Hand  -40.705 24.2418 -126.793
L_Clavicle  -1.6449 -4.88058 9.92123
L_UpperArm  -73.1697 -24.1941 44.2387
L_Forearm  11.243 -15.9744 -19.3138
L_Hand  0.481618 -12.9772 -6.76428
L_Thigh  2.60844 -11.8394 -2.09727
L_Calf  -6.48719 6.17604 -52.4251
L_Foot  2.80902 5.0432 6.05487
L_Toe0  -1.10894 0.157841 -5.14667
R_Thigh  12.9341 1.99447 19.0233
R_Calf  7.6112 -0.449623 -1.32512
R_Foot  1.71288 3.79261 -7.86398
R_Toe0  -1.78853 -0.272788 -17.3235
472
root  -13.6993 15.3879 -20.2823 131.952 -14.507 154.927
Spine  -9.68278 -8.30046 2.95335
Spine1  -10.6658 14.6508 -17.1659
Neck  3.97569e-016 0 -2.38542e-015
Head  -8.36763 -33.4687 12.6838
R_Clavicle  0.831274 -5.61349 4.90019
R_UpperArm  54.8176 -38.249 58.5005
R_Forearm  26.2015 1.32556 -1.1053
R_Hand  -40.3686 24.5906 -125.646
L_Clavicle  -0.954373 -0.433597 6.67781
L_UpperArm  -67.9069 -16.7205 41.1253
L_Forearm  14.1317 -22.0826 -27.9449
L_Hand  0.578801 -15.039 -6.35705
L_Thigh  5.67604 -10.3635 -7.00279
L_Calf  0.922012 4.73547 -37.2589
L_Foot  1.21277 1.61794 4.4268
L_Toe0  -5.95688 0.507956 -2.18726
R_Thigh  9.53312 0.369787 22.307
R_Calf  6.64312 0.428429 1.3449
R_Foot  1.88115 4.6873 -7.4197
R_Toe0  -1.78853 -0.272788 -17.3235
473
root  -14.3266 15.5171 -21.8238 132.449 -19.0961 152.904
Spine  -10.4736 -8.5204 5.65587
Spine1  -11.6774 17.1658 -17.8959
Neck  3.97569e-016 0 -2.38542e-015
Head  -8.91977 -31.5337 13.7007
R_Clavicle  0.900252 -5.39321 5.32253
R_UpperArm  55.9836 -31.8396 56.5237
R_Forearm  31.3977 1.5665 -1.81976
R_Hand  -40.0286 24.6163 -125.066
L_Clavicle  -0.478631 3.65151 3.40008
L_UpperArm  -59.0092 -7.57915 34.1777
L_Forearm  17.8055 -26.2548 -34.7266
L_Hand  0.547803 -14.5134 -6.3854
L_Thigh  5.90943 -8.2719 -9.14897
L_Calf  8.31331 2.98031 -22.0787
L_Foot  -3.25222 -15.247 11.9916
L_Toe0  0.236509 -0.000473748 -6.00356
R_Thigh  6.18252 1.00028 25.7976
R_Calf  2.35544 0.135078 0.409473
R_Foot  2.04515 5.866 -5.70206
R_Toe0  -1.78853 -0.272788 -17.3235
